<svg xmlns="http://www.w3.org/2000/svg" viewBox="0 0 16 16" role="presentation" class="IconBase_s_Tj2yu IconBase_root_U5LTW CurrencyIcon_s_brBHC" width="16" height="16"><g clip-path="url(#clip0_309_28349)"><g clip-path="url(#clip1_309_28349)"><path d="M8 16A8 8 0 108 0a8 8 0 000 16z" fill="#F6931A"></path><path d="M8.553 3.014l-.865-.216-2.372 9.484.865.217 2.372-9.485zM10.1 3.366l-.865-.217-2.372 9.485.865.216L10.1 3.366z" fill="#fff"></path><path d="M5.55 3.797l3.825.897s1.014.218 1.477.645c.354.326.582.562.669 1.036.067.373.04.62-.123.962-.15.318-.291.506-.603.67-.143.074-.392.13-.392.13s.44.241.628.49c.236.312.293.562.31.954.02.452-.07.733-.31 1.117-.246.395-.47.6-.897.783-.441.189-.735.158-1.214.138-.314-.014-.81-.138-.81-.138l-4.225-1.06.449-1.028.669.188s.161.015.236-.041c.055-.041.098-.147.098-.147l1.028-4.054s-.011-.144-.057-.22c-.05-.084-.188-.164-.188-.164l-.813-.218.242-.94z" fill="#fff"></path><path d="M7.89 5.456l.786.175s.598.13.843.4c.196.214.334.384.312.674a.705.705 0 01-.25.512c-.169.161-.325.18-.555.224-.314.062-.818-.056-.818-.056l-.755-.218.437-1.711zM7.222 8.066l1.067.275s.68.171.956.487c.173.199.299.335.312.6a.738.738 0 01-.2.574c-.16.188-.323.228-.562.293-.337.091-.893-.037-.893-.037l-1.317-.256.637-1.936z" fill="#F7931A"></path><path d="M7.99 5.38l-1.243 4.94-1.161-.175L7.146 4.6l.844.78z" fill="#fff"></path></g></g><defs><clipPath id="clip0_309_28349"><path fill="#fff" d="M0 0h16v16H0z"></path></clipPath><clipPath id="clip1_309_28349"><path fill="#fff" d="M0 0h16v16H0z"></path></clipPath></defs></svg>