<svg xmlns="http://www.w3.org/2000/svg" viewBox="0 0 16 16" role="presentation" class="IconBase_s_Tj2yu IconBase_root_U5LTW CurrencyIcon_s_brBHC" width="16" height="16"><g clip-path="url(#clip0_309_28343)"><path d="M7.961 15.01c3.918 0 7.094-3.139 7.094-7.01S11.88.99 7.961.99C4.044.99.867 4.13.867 8s3.177 7.01 7.094 7.01z" fill="#fff"></path><path d="M7.961.133C3.566.133 0 3.657 0 8s3.566 7.867 7.961 7.867c4.396 0 7.962-3.524 7.962-7.867C15.943 3.676 12.395.152 8 .133h-.039zm.135 8.134l-.829 2.761h4.434c.116 0 .231.096.231.21v.076l-.385 1.315a.29.29 0 01-.29.21H4.473l1.138-3.83-1.273.381.29-.876 1.272-.38 1.6-5.372a.29.29 0 01.289-.21h1.716c.115 0 .23.096.23.21v.076L8.387 7.371l1.272-.38-.27.914-1.292.362z" fill="#345D9D"></path></g><defs><clipPath id="clip0_309_28343"><path fill="#fff" d="M0 0h16v16H0z"></path></clipPath></defs></svg>