<svg xmlns="http://www.w3.org/2000/svg" viewBox="0 0 16 16" role="presentation" class="IconBase_s_Tj2yu IconBase_root_U5LTW CurrencyIcon_s_brBHC" width="16" height="16"><path d="M8 16A8 8 0 108 0a8 8 0 000 16z" fill="#53AE94"></path><path d="M8.855 8.742c-.052 0-.34.02-.979.02-.504 0-.864-.01-.988-.02-1.956-.083-3.408-.422-3.408-.834s1.462-.752 3.408-.834v1.328c.124.01.494.031.999.031.607 0 .906-.02.968-.03v-1.33c1.945.083 3.407.423 3.407.835 0 .401-1.462.741-3.407.834zm0-1.812V5.746h2.718V3.934H4.16v1.812h2.718V6.93c-2.214.103-3.872.535-3.872 1.06s1.668.958 3.872 1.06v3.81h1.966V9.05c2.224-.092 3.882-.524 3.882-1.05 0-.525-1.658-.967-3.871-1.07z" fill="#fff"></path></svg>