<svg width="21" height="21" viewBox="0 0 21 21" fill="none" xmlns="http://www.w3.org/2000/svg">
<circle cx="10.5" cy="10.5" r="10.5" fill="white"/>
<path d="M9.552 12.288C9.552 11.8933 9.616 11.5467 9.744 11.248C9.872 10.9493 10.0373 10.6827 10.24 10.448C10.4427 10.2133 10.656 9.99467 10.88 9.792C11.1147 9.58933 11.3333 9.392 11.536 9.2C11.7387 9.008 11.904 8.80533 12.032 8.592C12.16 8.37867 12.224 8.13867 12.224 7.872C12.224 7.424 12.0427 7.06133 11.68 6.784C11.3173 6.50667 10.832 6.368 10.224 6.368C9.63733 6.368 9.12533 6.47467 8.688 6.688C8.26133 6.90133 7.904 7.20533 7.616 7.6L6.064 6.592C6.512 5.984 7.09867 5.50933 7.824 5.168C8.54933 4.816 9.408 4.64 10.4 4.64C11.1787 4.64 11.8613 4.75733 12.448 4.992C13.0347 5.216 13.4933 5.54667 13.824 5.984C14.1547 6.41067 14.32 6.93333 14.32 7.552C14.32 7.97867 14.2507 8.352 14.112 8.672C13.984 8.992 13.8133 9.27467 13.6 9.52C13.3973 9.75467 13.1787 9.97867 12.944 10.192C12.7093 10.3947 12.4853 10.5973 12.272 10.8C12.0693 11.0027 11.904 11.2213 11.776 11.456C11.648 11.6907 11.584 11.968 11.584 12.288H9.552ZM10.576 16.112C10.2027 16.112 9.89333 15.9893 9.648 15.744C9.41333 15.4987 9.296 15.2053 9.296 14.864C9.296 14.5227 9.41333 14.2347 9.648 14C9.89333 13.7547 10.2027 13.632 10.576 13.632C10.9493 13.632 11.2533 13.7547 11.488 14C11.7227 14.2347 11.84 14.5227 11.84 14.864C11.84 15.2053 11.7227 15.4987 11.488 15.744C11.2533 15.9893 10.9493 16.112 10.576 16.112Z" fill="black"/>
</svg>
