<svg width="16" height="13" viewBox="0 0 16 13" fill="none" xmlns="http://www.w3.org/2000/svg">
<path d="M8.79998 1.62953C8.79998 0.250329 7.21759 -0.50247 6.17599 0.379928L2.91039 3.14632H1.6C0.715999 3.14632 0 3.87432 0 4.77352V8.02631C0 8.92471 0.715999 9.65351 1.6 9.65351H2.91039L6.17599 12.4199C7.21759 13.3031 8.79998 12.5495 8.79998 11.1703V1.62953Z" fill="white"/>
<path fill-rule="evenodd" clip-rule="evenodd" d="M10.2289 2.92587C10.3019 2.84991 10.3893 2.78927 10.486 2.74751C10.5828 2.70575 10.6868 2.6837 10.7922 2.68266C10.8975 2.68161 11.002 2.7016 11.0995 2.74144C11.197 2.78127 11.2856 2.84017 11.3601 2.91467C11.8179 3.37205 12.1807 3.91536 12.4278 4.51339C12.6749 5.11142 12.8015 5.75239 12.8001 6.39946C12.8001 7.72906 12.2761 8.93546 11.4281 9.81546C11.3551 9.89142 11.2677 9.95206 11.171 9.99382C11.0743 10.0356 10.9702 10.0576 10.8649 10.0587C10.7595 10.0597 10.655 10.0397 10.5575 9.99989C10.46 9.96005 10.3714 9.90116 10.2969 9.82666C10.1456 9.67428 10.0598 9.46885 10.0577 9.25414C10.0556 9.03942 10.1374 8.83236 10.2857 8.67706C10.8738 8.0648 11.2016 7.24839 11.2001 6.39946C11.2007 5.96812 11.1162 5.5409 10.9515 5.14225C10.7868 4.7436 10.545 4.38136 10.2401 4.07627C10.0886 3.92385 10.0026 3.71826 10.0005 3.50335C9.99844 3.28844 10.0804 3.08121 10.2289 2.92587Z" fill="white"/>
<path fill-rule="evenodd" clip-rule="evenodd" d="M12.5257 0.648731C12.5995 0.573504 12.6875 0.513742 12.7846 0.472945C12.8817 0.432147 12.986 0.411133 13.0913 0.411133C13.1967 0.411133 13.3009 0.432147 13.3981 0.472945C13.4952 0.513742 13.5832 0.573504 13.6569 0.648731C15.164 2.183 16.0059 4.24929 16.0001 6.39992C16.0001 8.64552 15.1041 10.6799 13.6569 12.1511C13.5832 12.2263 13.4952 12.2861 13.3981 12.3269C13.3009 12.3677 13.1967 12.3887 13.0913 12.3887C12.986 12.3887 12.8817 12.3677 12.7846 12.3269C12.6875 12.2861 12.5995 12.2263 12.5257 12.1511C12.3757 11.9972 12.2917 11.7908 12.2917 11.5759C12.2917 11.361 12.3757 11.1546 12.5257 11.0007C13.7317 9.7736 14.4052 8.12045 14.4001 6.39992C14.4052 4.67939 13.7317 3.02624 12.5257 1.79913C12.3757 1.64525 12.2917 1.43884 12.2917 1.22393C12.2917 1.00902 12.3757 0.802615 12.5257 0.648731Z" fill="white"/>
</svg>
