<svg width="12" height="15" viewBox="0 0 12 15" fill="none" xmlns="http://www.w3.org/2000/svg">
<path d="M11.6348 1.94997C10.7786 0.403119 6.90809 0.0749989 6.4711 0.032812L5.98059 0V9.5108C5.86708 9.41466 5.74628 9.32844 5.6194 9.25299C5.17152 9.01602 4.68263 8.87682 4.1822 8.84379C3.68176 8.81076 3.18015 8.88458 2.70759 9.0608C0.870423 9.68423 -0.311247 11.4655 0.0722383 13.0311C0.157706 13.3622 0.307131 13.6712 0.511199 13.939C0.715268 14.2067 0.969608 14.4274 1.25837 14.5873C1.75354 14.8645 2.30711 15.0064 2.86812 14.9998C3.31963 14.9997 3.76823 14.9237 4.19694 14.7748C5.84682 14.217 6.9616 12.7264 6.89917 11.2967V3.04214C7.34509 3.09839 7.95599 3.19683 8.60256 3.34214C9.24252 3.44476 9.8574 3.6772 10.413 4.0265C10.8589 4.33587 10.5824 4.91711 10.5601 4.96399C10.347 5.30418 10.0987 5.61859 9.81991 5.90148C9.7388 5.98601 9.69165 6.10004 9.68818 6.22005C9.6847 6.34006 9.72516 6.45689 9.80122 6.54646C9.87728 6.63603 9.98313 6.69151 10.097 6.70145C10.2108 6.7114 10.3239 6.67505 10.413 6.5999C10.5066 6.49209 12.8922 4.21869 11.6348 1.94997Z" fill="white"/>
</svg>
